<svg preserveAspectRatio="none" width="100%" height="100%" overflow="visible" style="display: block;" viewBox="0 0 298 34" fill="none" xmlns="http://www.w3.org/2000/svg">
<g id="Frame 189">
<g id="Vector">
<path fill-rule="evenodd" clip-rule="evenodd" d="M92.3325 0.00103196C88.8374 0.064633 86.0717 2.99402 86.0717 6.4871V10.6187C86.0717 10.6187 86.0692 10.6249 86.0655 10.6249H74.4715C72.146 10.6249 70.1821 8.79918 70.1273 6.47587C70.0711 4.05404 72.055 2.07118 74.479 2.1273C76.8033 2.18093 78.6313 4.14508 78.6313 6.46839V9.3878C78.6313 9.3878 78.6338 9.39404 78.6375 9.39404H80.7523C80.7523 9.39404 80.7585 9.39155 80.7585 9.3878V6.48834C80.7561 2.99402 77.9916 0.0658801 74.4965 0.00103196C70.9253 -0.0625691 68 2.82193 68 6.3761V27.5116C68 31.0047 70.7657 33.9341 74.2608 33.9977C77.8308 34.0625 80.7573 31.178 80.7573 27.6239V23.38C80.7573 23.38 80.7548 23.3738 80.7511 23.3738H78.6363C78.6363 23.3738 78.63 23.3763 78.63 23.38V27.5316C78.63 29.8549 76.8033 31.819 74.4778 31.8727C72.0538 31.9288 70.0699 29.9459 70.126 27.5241C70.1796 25.2008 72.1448 23.3751 74.4703 23.3751H92.3562C94.6817 23.3751 96.6456 25.2008 96.7005 27.5241C96.7566 29.9459 94.7728 31.9288 92.3487 31.8727C90.0245 31.819 88.1965 29.8549 88.1965 27.5316V24.6084C88.1965 24.6084 88.194 24.6022 88.1902 24.6022H86.0754C86.0754 24.6022 86.0692 24.6047 86.0692 24.6084V27.5129C86.0692 31.0059 88.8349 33.9353 92.33 33.9989C95.9012 34.0638 98.8265 31.1793 98.8265 27.6251V6.3761C98.8278 2.82193 95.9025 -0.0625691 92.3325 0.00103196ZM96.7017 22.8638C96.7017 22.8638 96.6955 22.8712 96.6918 22.8675C95.5633 21.8611 94.077 21.2488 92.4485 21.2488H74.378C74.3618 21.2488 74.3456 21.2488 74.3294 21.2488C72.0201 21.2662 70.126 19.4343 70.126 17.1272V16.8715C70.126 14.5644 72.0201 12.7325 74.3294 12.7499C74.3456 12.7499 74.3618 12.7499 74.378 12.7499H92.4497C92.4659 12.7499 92.4822 12.7499 92.4984 12.7499C94.8077 12.7325 96.7017 14.5644 96.7017 16.8715V22.8638ZM92.3562 10.6249H88.2027C88.2027 10.6249 88.1965 10.6224 88.1965 10.6187V6.46714C88.1965 4.14383 90.0232 2.17968 92.3487 2.12606C94.7728 2.06994 96.7566 4.05279 96.7005 6.47462C96.6469 8.79793 94.6817 10.6237 92.3562 10.6237V10.6249Z" fill="#FFDBB3"/>
<path fill-rule="evenodd" clip-rule="evenodd" d="M208.193 20.9611C208.276 22.7556 209.8 24.053 211.628 24.053C213.346 24.053 214.288 23.1971 214.731 21.9827L217.806 22.8936C217.113 25.24 214.953 27.2 211.601 27.2C207.86 27.2 204.564 24.5222 204.564 19.9398C204.564 15.6058 207.777 12.7902 211.268 12.7902C215.479 12.7902 218 15.4677 218 19.8294C218 20.3539 217.944 20.906 217.944 20.9611H208.193ZM211.323 15.7714C209.412 15.7714 208.359 17.2069 208.276 18.4492H214.371C214.315 17.0965 213.429 15.7714 211.323 15.7714ZM199.605 6.79996H203.289V26.7858H199.605V6.79996ZM194.175 25.157C193.483 26.2337 192.181 27.1723 190.158 27.1723C187.249 27.1723 185.476 25.2124 185.476 23.0867C185.476 20.6576 187.277 19.3049 189.549 18.9737L192.901 18.4767C193.676 18.3663 193.926 17.9798 193.926 17.5106C193.926 16.5444 193.178 15.7438 191.626 15.7438C190.02 15.7438 189.133 16.7654 189.022 17.9522L185.753 17.2622C185.975 15.1366 187.942 12.7902 191.599 12.7902C195.92 12.7902 197.527 15.2193 197.527 17.9522V24.6326C197.527 25.3504 197.61 26.3164 197.694 26.7858H194.314C194.23 26.4268 194.175 25.6815 194.175 25.157ZM193.926 20.685L190.851 21.1544C189.909 21.2925 189.161 21.817 189.161 22.866C189.161 23.6665 189.742 24.4394 190.934 24.4394C192.485 24.4394 193.926 23.6939 193.926 21.2925V20.685ZM177.803 26.7858L174.617 17.5106L171.486 26.7858H167.746L163.397 13.2043H167.275L169.796 21.9274L172.761 13.2043H176.639L179.576 21.955L182.097 13.2043H185.754L181.487 26.7858H177.803ZM156.992 27.2C152.92 27.2 149.844 24.1634 149.844 19.9951C149.844 15.7991 152.92 12.7902 156.992 12.7902C161.064 12.7902 164.139 15.7991 164.139 19.9951C164.139 24.1634 161.064 27.2 156.992 27.2ZM156.992 16.1303C155.191 16.1303 153.529 17.4277 153.529 19.9951C153.529 22.5346 155.191 23.8596 156.992 23.8596C158.793 23.8596 160.455 22.5622 160.455 19.9951C160.455 17.4277 158.793 16.1303 156.992 16.1303ZM144.885 6.79996H148.57V26.7858H144.885V6.79996ZM138.902 6.79996H142.586V26.7858H138.902V6.79996ZM127.876 20.9611C127.959 22.7556 129.483 24.053 131.311 24.053C133.029 24.053 133.971 23.1971 134.414 21.9827L137.489 22.8936C136.796 25.24 134.636 27.2 131.283 27.2C127.543 27.2 124.247 24.5222 124.247 19.9398C124.247 15.6058 127.46 12.7902 130.951 12.7902C135.162 12.7902 137.683 15.4677 137.683 19.8294C137.683 20.3539 137.627 20.906 137.627 20.9611H127.876ZM131.006 15.7714C129.095 15.7714 128.042 17.2069 127.959 18.4492H134.054C133.998 17.0965 133.112 15.7714 131.006 15.7714ZM119.532 18.8631C119.532 17.3449 118.784 16.1579 117.011 16.1579C115.459 16.1579 114.545 17.3173 114.462 18.808V26.7858H110.777V6.79996H114.462V14.336C115.348 13.287 116.844 12.8455 118.147 12.8455C121.609 12.8455 123.216 15.247 123.216 18.2282V26.7858H119.532V18.8631Z" fill="var(--fill-0, white)"/>
</g>
</g>
</svg>
